<svg width="484" height="80" viewBox="0 0 484 80" fill="none" xmlns="http://www.w3.org/2000/svg">
<path d="M31.4759 24.0484C35.3001 24.0484 38.7199 24.8209 41.7352 26.3653C43.7403 27.3924 45.4675 28.6973 46.9197 30.2772V25.1516H61.2605V56.3179L47.0849 56.5061C47.4889 55.0411 47.6918 53.4518 47.6918 51.7373C47.6918 48.9429 47.1038 46.4791 45.9272 44.3465C44.8241 42.1403 43.2427 40.4485 41.1836 39.2718C39.198 38.0216 36.8442 37.3966 34.1231 37.3966C31.4757 37.3967 29.1225 38.0216 27.0634 39.2718C25.0777 40.4485 23.4964 42.1402 22.3197 44.3465C21.2167 46.4791 20.665 48.9429 20.665 51.7373C20.6651 53.5772 20.8934 55.2805 21.3473 56.8479L6.27334 57.0483C6.01279 55.3755 5.88336 53.6416 5.88336 51.8472C5.8834 46.5523 6.98653 41.8089 9.19276 37.6171C11.399 33.4252 14.4512 30.1158 18.3489 27.6889C22.2466 25.2621 26.6222 24.0484 31.4759 24.0484Z" fill="#FF48AA"/>
<path d="M103.939 24.0484C107.837 24.0484 111.33 25.0412 114.419 27.0267C117.508 28.9388 119.935 31.4765 121.7 34.6388C123.465 37.7274 124.347 41.0734 124.347 44.6769V55.4798L109.897 55.6723V47.8764C109.897 44.7142 108.904 42.1401 106.918 40.1544C104.933 38.1689 102.359 37.1762 99.1964 37.1761C97.1373 37.1761 95.2987 37.6173 93.6808 38.4997C92.0629 39.3822 90.7758 40.6323 89.8198 42.2501C88.9373 43.868 88.4955 45.7436 88.4955 47.8764V55.956L74.0449 56.1484V25.1516H88.4955V30.1458C89.8122 28.7944 91.3198 27.6445 93.0186 26.6964C96.2544 24.9314 99.8946 24.0485 103.939 24.0484Z" fill="#FF48AA"/>
<path d="M157.625 25.1516H170.091V37.8376H157.625V55.0381L143.174 55.2299V37.8376H130.709V25.1516H143.174V2.97903H157.625V25.1516Z" fill="#FF48AA"/>
<path d="M192.779 54.5713L178.218 54.7645V25.1516H192.779V54.5713Z" fill="#FF48AA"/>
<path d="M224.665 23.8279C229.077 23.828 233.048 24.6005 236.578 26.1448C240.182 27.6892 243.16 30.0053 245.514 33.094L236.799 41.8091C235.181 39.8235 233.343 38.389 231.284 37.5065C229.298 36.624 227.128 36.1829 224.775 36.1829C222.642 36.1829 220.987 36.5143 219.811 37.1761C218.708 37.838 218.156 38.7574 218.156 39.934C218.156 41.2575 218.781 42.2868 220.031 43.0222C221.355 43.7576 223.047 44.4196 225.106 45.0079C227.165 45.5227 229.298 46.1477 231.504 46.8831C233.784 47.545 235.917 48.5013 237.902 49.7515C239.686 50.8348 241.166 52.2222 242.343 53.9127L213.137 54.3005C212.449 53.9796 211.768 53.6415 211.096 53.2814C209.037 52.1048 207.345 50.5235 206.021 48.5378C204.771 46.4787 204.146 43.8311 204.146 40.5954C204.146 37.2125 204.955 34.2707 206.573 31.7704C208.264 29.2699 210.655 27.3209 213.743 25.9236C216.832 24.5263 220.473 23.8279 224.665 23.8279Z" fill="#FF48AA"/>
<path d="M276.88 25.1516H289.345V37.8376H276.88V53.4545L262.428 53.6463V37.8376H249.964V25.1516H262.428V2.97903H276.88V25.1516Z" fill="#FF48AA"/>
<path d="M318.463 24.0484C322.287 24.0484 325.707 24.8209 328.722 26.3653C330.727 27.3924 332.454 28.6973 333.906 30.2772V25.1516H348.247V52.5065L334.656 52.6868C334.67 52.3746 334.679 52.0582 334.679 51.7373C334.679 48.9429 334.09 46.4791 332.914 44.3465C331.811 42.1403 330.229 40.4485 328.17 39.2718C326.185 38.0216 323.831 37.3966 321.11 37.3966C318.462 37.3967 316.109 38.0216 314.05 39.2718C312.064 40.4485 310.483 42.1402 309.306 44.3465C308.203 46.4791 307.652 48.9429 307.652 51.7373C307.652 52.1812 307.666 52.6171 307.693 53.0451L292.897 53.2412C292.879 52.7808 292.87 52.3159 292.87 51.8472C292.87 46.5523 293.973 41.8089 296.18 37.6171C298.386 33.4252 301.438 30.1158 305.336 27.6889C309.233 25.2621 313.609 24.0484 318.463 24.0484Z" fill="#FF48AA"/>
<path d="M383.315 25.1516H395.78V37.8376H383.315V52.0404L368.863 52.2329V37.8376H356.399V25.1516H368.863V2.97903H383.315V25.1516Z" fill="#FF48AA"/>
<path d="M418.468 51.5736L403.907 51.7675V25.1516H418.468V51.5736Z" fill="#FF48AA"/>
<path d="M456.422 23.9385C460.613 23.9386 464.475 24.7103 468.005 26.2547C471.534 27.799 474.586 30.0055 477.16 32.8735L467.894 42.2501C466.497 40.7058 464.805 39.5292 462.819 38.7202C460.907 37.9114 458.775 37.5065 456.422 37.5065C453.774 37.5065 451.384 38.1322 449.251 39.3824C447.192 40.5591 445.537 42.2138 444.287 44.3465C443.177 46.2891 442.591 48.5915 442.528 51.254L427.743 51.4508C427.804 46.3153 429.053 41.704 431.491 37.6171C433.991 33.4252 437.411 30.1158 441.75 27.6889C446.162 25.1885 451.053 23.9385 456.422 23.9385Z" fill="#FF48AA"/>
<path d="M185.498 0C187.925 0 189.874 0.809537 191.345 2.42747C192.889 4.04531 193.661 5.99384 193.661 8.27349C193.661 10.6268 192.889 12.6129 191.345 14.2308C189.874 15.7751 187.925 16.547 185.498 16.547C183.145 16.5469 181.196 15.775 179.652 14.2308C178.107 12.6129 177.335 10.6268 177.335 8.27349C177.335 5.99381 178.108 4.04532 179.652 2.42747C181.196 0.809604 183.145 6.68589e-05 185.498 0Z" fill="#FF48AA"/>
<path d="M411.188 0C413.614 0 415.563 0.809537 417.034 2.42747C418.579 4.04531 419.351 5.99384 419.351 8.27349C419.351 10.6268 418.579 12.6129 417.034 14.2308C415.563 15.7751 413.614 16.547 411.188 16.547C408.834 16.5469 406.886 15.775 405.341 14.2308C403.797 12.6129 403.025 10.6268 403.025 8.27349C403.025 5.99381 403.797 4.04532 405.341 2.42747C406.886 0.809609 408.834 7.20015e-05 411.188 0Z" fill="#FF48AA"/>
<path d="M25.5925 24.0484C29.4167 24.0484 32.8366 24.8209 35.8518 26.3653C37.857 27.3923 39.5841 28.6973 41.0364 30.2772V25.1516H55.3771V56.3962L41.18 56.5844C41.5985 55.0978 41.8084 53.4823 41.8084 51.7373C41.8084 48.9429 41.2204 46.4791 40.0438 44.3465C38.9407 42.1403 37.3594 40.4485 35.3002 39.2718C33.3146 38.0216 30.9608 37.3966 28.2398 37.3966C25.5924 37.3967 23.2391 38.0216 21.18 39.2718C19.1944 40.4485 17.6131 42.1402 16.4364 44.3465C15.3334 46.4791 14.7817 48.9429 14.7817 51.7373C14.7817 53.6078 15.0177 55.3372 15.4869 56.9262L1.96855 57.1058L0.415829 57.2027C0.138959 55.4822 0 53.6969 0 51.8472C3.93532e-05 46.5523 1.10317 41.8089 3.3094 37.6171C5.51566 33.4252 8.56782 30.1158 12.4655 27.6889C16.3632 25.2621 20.7388 24.0484 25.5925 24.0484Z" fill="#5B8DF9"/>
<path d="M98.056 24.0484C101.954 24.0484 105.447 25.0412 108.536 27.0267C111.624 28.9388 114.052 31.4765 115.817 34.6388C117.582 37.7274 118.464 41.0734 118.464 44.6768V55.5581L104.013 55.7498V47.8764C104.013 44.7142 103.02 42.14 101.035 40.1544C99.0494 38.1689 96.4753 37.1762 93.3131 37.1761C91.2539 37.1761 89.4153 37.6173 87.7974 38.4997C86.1796 39.3822 84.8925 40.6323 83.9364 42.2501C83.0539 43.868 82.6121 45.7436 82.6121 47.8764V56.0342L68.1615 56.226V25.1516H82.6121V30.1458C83.9289 28.7944 85.4365 27.6445 87.1352 26.6964C90.371 24.9314 94.0113 24.0485 98.056 24.0484Z" fill="#5B8DF9"/>
<path d="M151.742 25.1516H164.207V37.8376H151.742V55.1164L137.29 55.3081V37.8376H124.826V25.1516H137.29V2.97903H151.742V25.1516Z" fill="#5B8DF9"/>
<path d="M186.895 54.6496L172.334 54.8428V25.1516H186.895V54.6496Z" fill="#5B8DF9"/>
<path d="M218.781 23.8279C223.194 23.828 227.165 24.6005 230.695 26.1448C234.298 27.6892 237.277 30.0053 239.63 33.094L230.916 41.8091C229.298 39.8235 227.459 38.389 225.4 37.5065C223.415 36.624 221.245 36.1829 218.891 36.1829C216.759 36.1829 215.104 36.5143 213.927 37.1761C212.824 37.838 212.273 38.7574 212.273 39.934C212.273 41.2575 212.898 42.2868 214.148 43.0222C215.471 43.7576 217.163 44.4196 219.222 45.0079C221.282 45.5227 223.414 46.1477 225.621 46.8831C227.9 47.545 230.033 48.5013 232.019 49.7515C233.83 50.8513 235.328 52.2646 236.513 53.9903L207.415 54.3767C206.672 54.0339 205.938 53.6698 205.213 53.2814C203.154 52.1048 201.462 50.5235 200.138 48.5378C198.888 46.4787 198.263 43.8311 198.263 40.5954C198.263 37.2125 199.072 34.2707 200.69 31.7703C202.381 29.2699 204.771 27.3209 207.86 25.9236C210.949 24.5263 214.59 23.8279 218.781 23.8279Z" fill="#5B8DF9"/>
<path d="M270.996 25.1516H283.462V37.8376H270.996V53.5321L256.545 53.7245V37.8376H244.08V25.1516H256.545V2.97903H270.996V25.1516Z" fill="#5B8DF9"/>
<path d="M312.579 24.0484C316.403 24.0484 319.823 24.8209 322.839 26.3653C324.844 27.3923 326.571 28.6973 328.023 30.2772V25.1516H342.364V52.5848L328.769 52.765C328.786 52.4276 328.795 52.0851 328.795 51.7373C328.795 48.9429 328.207 46.4791 327.031 44.3465C325.927 42.1403 324.346 40.4485 322.287 39.2718C320.301 38.0216 317.948 37.3966 315.227 37.3966C312.579 37.3967 310.226 38.0216 308.167 39.2718C306.181 40.4485 304.6 42.1402 303.423 44.3465C302.32 46.4791 301.768 48.9429 301.768 51.7373C301.768 52.2083 301.785 52.6703 301.814 53.1234L287.016 53.3195C286.996 52.8335 286.987 52.3425 286.987 51.8472C286.987 46.5523 288.09 41.8089 290.296 37.6171C292.502 33.4252 295.555 30.1158 299.452 27.6889C303.35 25.2621 307.726 24.0484 312.579 24.0484Z" fill="#5B8DF9"/>
<path d="M377.431 25.1516H389.897V37.8376H377.431V52.1187L362.98 52.3104V37.8376H350.515V25.1516H362.98V2.97903H377.431V25.1516Z" fill="#5B8DF9"/>
<path d="M412.585 51.6519L398.024 51.8451V25.1516H412.585V51.6519Z" fill="#5B8DF9"/>
<path d="M450.538 23.9385C454.73 23.9386 458.591 24.7103 462.121 26.2547C465.651 27.799 468.703 30.0055 471.277 32.8735L462.011 42.2501C460.613 40.7058 458.922 39.5292 456.936 38.7202C455.024 37.9114 452.891 37.5065 450.538 37.5065C447.891 37.5065 445.501 38.1322 443.368 39.3824C441.309 40.5591 439.654 42.2138 438.404 44.3465C437.283 46.3081 436.697 48.6366 436.644 51.3323L421.859 51.5291C421.908 46.3621 423.157 41.7248 425.607 37.6171C428.108 33.4252 431.528 30.1158 435.866 27.6889C440.279 25.1885 445.17 23.9385 450.538 23.9385Z" fill="#5B8DF9"/>
<path d="M179.614 0C182.041 0 183.99 0.809537 185.461 2.42747C187.006 4.04531 187.778 5.99384 187.778 8.27349C187.778 10.6268 187.006 12.6129 185.461 14.2308C183.99 15.7751 182.041 16.547 179.614 16.547C177.261 16.5469 175.313 15.775 173.768 14.2308C172.224 12.6129 171.452 10.6268 171.452 8.27349C171.452 5.99381 172.224 4.04532 173.768 2.42747C175.313 0.809604 177.261 6.68589e-05 179.614 0Z" fill="#5B8DF9"/>
<path d="M405.304 0C407.731 0 409.68 0.809537 411.151 2.42747C412.695 4.04531 413.468 5.99384 413.468 8.27349C413.468 10.6268 412.695 12.6129 411.151 14.2308C409.68 15.7751 407.731 16.547 405.304 16.547C402.951 16.5469 401.002 15.775 399.458 14.2308C397.914 12.6129 397.141 10.6268 397.141 8.27349C397.141 5.99381 397.914 4.04532 399.458 2.42747C401.002 0.809609 402.951 7.20015e-05 405.304 0Z" fill="#5B8DF9"/>
<path d="M28.5342 24.0484C32.3584 24.0484 35.7782 24.8209 38.7934 26.3653C40.7986 27.3924 42.5258 28.6973 43.978 30.2772V25.1516H58.3187V56.3567L44.1324 56.5456C44.5437 55.0697 44.7501 53.4672 44.7501 51.7373C44.7501 48.9429 44.162 46.4791 42.9855 44.3465C41.8824 42.1403 40.301 40.4485 38.2419 39.2718C36.2562 38.0216 33.9025 37.3966 31.1814 37.3966C28.534 37.3967 26.1807 38.0216 24.1216 39.2718C22.136 40.4485 20.5547 42.1402 19.378 44.3465C18.275 46.4791 17.7233 48.9429 17.7233 51.7373C17.7233 53.5924 17.9556 55.3086 18.4171 56.8867L3.33809 57.0871C3.07349 55.4023 2.94165 53.6555 2.94165 51.8472C2.94169 46.5523 4.04482 41.8089 6.25105 37.6171C8.45731 33.4252 11.5095 30.1158 15.4072 27.6889C19.3049 25.2621 23.6805 24.0484 28.5342 24.0484Z" fill="#060315"/>
<path d="M100.998 24.0484C104.895 24.0484 108.389 25.0412 111.477 27.0267C114.566 28.9388 116.993 31.4765 118.758 34.6388C120.523 37.7274 121.406 41.0734 121.406 44.6769V55.5193L106.955 55.711V47.8764C106.955 44.7142 105.962 42.1401 103.977 40.1544C101.991 38.1689 99.4169 37.1762 96.2547 37.1761C94.1956 37.1761 92.3569 37.6173 90.7391 38.4997C89.1212 39.3822 87.8341 40.6323 86.8781 42.2501C85.9956 43.868 85.5538 45.7436 85.5538 47.8764V55.9955L71.1032 56.1872V25.1516H85.5538V30.1458C86.8705 28.7944 88.3781 27.6445 90.0769 26.6964C93.3127 24.9314 96.9529 24.0485 100.998 24.0484Z" fill="#060315"/>
<path d="M154.683 25.1516H167.149V37.8376H154.683V55.0769L140.232 55.2694V37.8376H127.767V25.1516H140.232V2.97903H154.683V25.1516Z" fill="#060315"/>
<path d="M189.837 54.6101L175.276 54.804V25.1516H189.837V54.6101Z" fill="#060315"/>
<path d="M221.723 23.8279C226.135 23.828 230.106 24.6005 233.636 26.1448C237.24 27.6892 240.219 30.0053 242.572 33.094L233.858 41.8091C232.24 39.8235 230.401 38.389 228.342 37.5065C226.356 36.624 224.186 36.1829 221.833 36.1829C219.7 36.1829 218.046 36.5143 216.869 37.1761C215.766 37.838 215.214 38.7574 215.214 39.934C215.214 41.2575 215.839 42.2868 217.089 43.0222C218.413 43.7576 220.105 44.4196 222.164 45.0079C224.223 45.5227 226.356 46.1477 228.562 46.8831C230.842 47.545 232.975 48.5013 234.961 49.7515C236.758 50.8431 238.247 52.2434 239.428 53.9515L210.277 54.3386C209.561 54.0067 208.853 53.6557 208.154 53.2814C206.095 52.1048 204.403 50.5235 203.08 48.5378C201.83 46.4787 201.205 43.8311 201.205 40.5954C201.205 37.2125 202.013 34.2707 203.631 31.7704C205.323 29.2699 207.713 27.3209 210.802 25.9236C213.89 24.5263 217.531 23.8279 221.723 23.8279Z" fill="#060315"/>
<path d="M273.938 25.1516H286.404V37.8376H273.938V53.4933L259.487 53.6851V37.8376H247.022V25.1516H259.487V2.97903H273.938V25.1516Z" fill="#060315"/>
<path d="M315.521 24.0484C319.345 24.0484 322.765 24.8209 325.78 26.3653C327.785 27.3924 329.513 28.6973 330.965 30.2772V25.1516H345.305V52.5453L331.712 52.7263C331.728 52.4013 331.737 52.0718 331.737 51.7373C331.737 48.9429 331.149 46.4791 329.972 44.3465C328.869 42.1403 327.288 40.4485 325.229 39.2718C323.243 38.0216 320.889 37.3966 318.168 37.3966C315.521 37.3967 313.167 38.0216 311.108 39.2718C309.123 40.4485 307.541 42.1402 306.365 44.3465C305.262 46.4791 304.71 48.9429 304.71 51.7373C304.71 52.1946 304.725 52.6435 304.753 53.0839L289.956 53.2807C289.938 52.8074 289.928 52.3293 289.928 51.8472C289.928 46.5523 291.032 41.8089 293.238 37.6171C295.444 33.4252 298.496 30.1158 302.394 27.6889C306.292 25.2621 310.667 24.0484 315.521 24.0484Z" fill="#060315"/>
<path d="M380.373 25.1516H392.839V37.8376H380.373V52.0799L365.922 52.2717V37.8376H353.457V25.1516H365.922V2.97903H380.373V25.1516Z" fill="#060315"/>
<path d="M415.527 51.6131L400.966 51.8063V25.1516H415.527V51.6131Z" fill="#060315"/>
<path d="M453.48 23.9385C457.672 23.9386 461.533 24.7103 465.063 26.2547C468.593 27.799 471.644 30.0055 474.218 32.8735L464.952 42.2501C463.555 40.7058 461.863 39.5292 459.878 38.7202C457.966 37.9114 455.833 37.5065 453.48 37.5065C450.832 37.5065 448.442 38.1322 446.31 39.3824C444.25 40.5591 442.596 42.2138 441.345 44.3465C440.23 46.2987 439.644 48.6142 439.586 51.2935L424.801 51.4896C424.856 46.3385 426.105 41.7143 428.549 37.6171C431.049 33.4252 434.469 30.1158 438.808 27.6889C443.221 25.1885 448.111 23.9385 453.48 23.9385Z" fill="#060315"/>
<path d="M182.556 0C184.983 0 186.932 0.809537 188.403 2.42747C189.947 4.04531 190.72 5.99384 190.72 8.27349C190.72 10.6268 189.947 12.6129 188.403 14.2308C186.932 15.7751 184.983 16.547 182.556 16.547C180.203 16.5469 178.254 15.775 176.71 14.2308C175.166 12.6129 174.393 10.6268 174.393 8.27349C174.393 5.99381 175.166 4.04532 176.71 2.42747C178.254 0.809604 180.203 6.68589e-05 182.556 0Z" fill="#060315"/>
<path d="M408.246 0C410.673 0 412.622 0.809537 414.093 2.42747C415.637 4.04531 416.409 5.99384 416.409 8.27349C416.409 10.6268 415.637 12.6129 414.093 14.2308C412.622 15.7751 410.673 16.547 408.246 16.547C405.893 16.5469 403.944 15.775 402.4 14.2308C400.855 12.6129 400.083 10.6268 400.083 8.27349C400.083 5.99381 400.855 4.04532 402.4 2.42747C403.944 0.809609 405.893 7.20015e-05 408.246 0Z" fill="#060315"/>
<path d="M243.071 53.9034C243.255 54.167 243.433 54.4372 243.602 54.7156C244.926 56.7748 245.587 59.4223 245.587 62.6581C245.587 67.8795 243.712 72.0348 239.961 75.1236C236.211 78.1388 231.099 79.6467 224.627 79.6467C221.612 79.6467 218.634 79.2419 215.692 78.433C212.824 77.624 210.177 76.5208 207.75 75.1236C205.323 73.6527 203.227 71.8876 201.462 69.8284L210.066 61.114C211.905 63.1731 214.038 64.7174 216.465 65.747C218.891 66.7766 221.576 67.2911 224.518 67.2911C226.871 67.2911 228.636 66.9604 229.813 66.2985C231.063 65.6367 231.688 64.6438 231.688 63.3202C231.688 61.8494 231.026 60.7092 229.702 59.9002C228.452 59.0913 226.797 58.4292 224.738 57.9144C222.679 57.3261 220.51 56.7011 218.23 56.0393C216.737 55.5416 215.278 54.9573 213.852 54.2912L243.071 53.9034Z" fill="#5B8DF9"/>
<path d="M61.9959 78.433H47.6552V73.2577C46.2029 74.8217 44.4758 76.1432 42.4706 77.2193C39.4554 78.7636 36.0355 79.5361 32.2113 79.5361C27.3576 79.5361 22.982 78.3225 19.0843 75.8956C15.1866 73.4687 12.1344 70.1594 9.92818 65.9674C8.4786 63.2132 7.50448 60.2369 7.00732 57.0383L22.0799 56.8386C22.334 57.718 22.6583 58.5549 23.0552 59.3487C24.2318 61.4814 25.8131 63.1731 27.7988 64.4234C29.8579 65.6 32.2112 66.1879 34.8585 66.1879C38.9034 66.1879 42.1764 64.8646 44.6768 62.2171C46.1744 60.5874 47.2226 58.6804 47.8232 56.4967L61.9959 56.3079V78.433Z" fill="#5B8DF9"/>
<path d="M348.983 78.433H334.642V73.2577C333.19 74.8217 331.463 76.1432 329.457 77.2193C326.442 78.7636 323.022 79.5361 319.198 79.5361C314.344 79.5361 309.969 78.3225 306.071 75.8956C302.173 73.4687 299.121 70.1594 296.915 65.9674C294.905 62.1493 293.811 57.9042 293.631 53.2319L308.427 53.0351C308.571 55.3767 309.108 57.4813 310.042 59.3487C311.219 61.4814 312.8 63.1731 314.785 64.4234C316.845 65.6 319.198 66.1879 321.845 66.1879C325.89 66.1879 329.163 64.8646 331.664 62.2171C333.978 59.6987 335.22 56.5187 335.392 52.6774L348.983 52.4965V78.433Z" fill="#5B8DF9"/>
<path d="M443.257 51.7373C443.257 54.5319 443.846 57.0325 445.023 59.2388C446.273 61.3713 447.928 63.0626 449.987 64.3128C452.119 65.4894 454.51 66.078 457.157 66.078C459.584 66.078 461.753 65.6733 463.665 64.8643C465.651 63.9818 467.343 62.7319 468.74 61.114L478.117 70.4906C475.396 73.4322 472.27 75.6749 468.74 77.2193C465.21 78.7636 461.349 79.5361 457.157 79.5361C451.715 79.5361 446.824 78.3225 442.485 75.8956C438.146 73.4687 434.726 70.1594 432.226 65.9674C429.726 61.7756 428.476 57.0687 428.476 51.8472C428.476 51.7113 428.477 51.5759 428.478 51.4407L443.264 51.2447C443.26 51.4075 443.257 51.5718 443.257 51.7373Z" fill="#5B8DF9"/>
<path d="M89.2309 78.433H74.7803V56.1384L89.2309 55.9466V78.433Z" fill="#5B8DF9"/>
<path d="M125.083 78.433H110.632V55.6622L125.083 55.4705V78.433Z" fill="#5B8DF9"/>
<path d="M158.361 78.433H143.909V55.2205L158.361 55.0281V78.433Z" fill="#5B8DF9"/>
<path d="M193.514 78.433H178.953V54.7551L193.514 54.5612V78.433Z" fill="#5B8DF9"/>
<path d="M277.615 78.433H263.164V53.6362L277.615 53.4445V78.433Z" fill="#5B8DF9"/>
<path d="M384.05 78.433H369.599V52.2228L384.05 52.0311V78.433Z" fill="#5B8DF9"/>
<path d="M419.204 78.433H404.643V51.7574L419.204 51.5642V78.433Z" fill="#5B8DF9"/>
<path d="M248.9 53.8258C249.103 54.1138 249.3 54.4098 249.485 54.7156C250.809 56.7748 251.47 59.4223 251.47 62.6581C251.47 67.8795 249.595 72.0348 245.845 75.1236C242.094 78.1388 236.983 79.6467 230.511 79.6467C227.496 79.6467 224.517 79.2419 221.576 78.433C218.708 77.624 216.06 76.5208 213.633 75.1236C211.207 73.6527 209.11 71.8876 207.345 69.8284L215.95 61.114C217.788 63.1731 219.921 64.7174 222.348 65.747C224.775 66.7766 227.459 67.2911 230.401 67.2911C232.754 67.2911 234.519 66.9604 235.696 66.2985C236.946 65.6367 237.571 64.6438 237.571 63.3202C237.571 61.8494 236.909 60.7092 235.586 59.9002C234.335 59.0913 232.681 58.4292 230.621 57.9144C228.562 57.3261 226.393 56.7011 224.113 56.0393C222.563 55.5227 221.051 54.9131 219.574 54.2151L248.9 53.8258Z" fill="#FF48AA"/>
<path d="M67.8793 78.433H53.5385V73.2577C52.0862 74.8217 50.3592 76.1432 48.354 77.2193C45.3387 78.7636 41.9189 79.5361 38.0947 79.5361C33.241 79.5361 28.8654 78.3225 24.9677 75.8956C21.07 73.4687 18.0178 70.1594 15.8116 65.9674C14.3503 63.191 13.3726 60.1888 12.8792 56.9607L27.9396 56.7603C28.1968 57.6685 28.5299 58.5313 28.9385 59.3487C30.1152 61.4814 31.6965 63.1731 33.6822 64.4234C35.7412 65.6 38.0945 66.1879 40.7419 66.1879C44.7867 66.1879 48.0598 64.8646 50.5602 62.2171C52.0758 60.5678 53.1305 58.6344 53.7274 56.4177L67.8793 56.2303V78.433Z" fill="#FF48AA"/>
<path d="M354.866 78.433H340.525V73.2577C339.073 74.8217 337.346 76.1432 335.341 77.2193C332.325 78.7636 328.906 79.5361 325.081 79.5361C320.228 79.5361 315.852 78.3225 311.954 75.8956C308.057 73.4687 305.005 70.1594 302.798 65.9674C300.778 62.128 299.682 57.8568 299.513 53.1536L314.306 52.9568C314.442 55.3298 314.981 57.4605 315.925 59.3487C317.102 61.4814 318.683 63.1731 320.669 64.4234C322.728 65.6 325.081 66.1879 327.729 66.1879C331.773 66.1879 335.047 64.8646 337.547 62.2171C339.877 59.6816 341.12 56.4755 341.279 52.5992L354.866 52.4182V78.433Z" fill="#FF48AA"/>
<path d="M449.149 51.1664C449.144 51.3548 449.141 51.5452 449.141 51.7373C449.141 54.5319 449.729 57.0325 450.906 59.2388C452.156 61.3713 453.811 63.0626 455.87 64.3128C458.003 65.4894 460.393 66.0781 463.04 66.0781C465.467 66.078 467.637 65.6733 469.549 64.8643C471.534 63.9818 473.226 62.7319 474.623 61.114L484 70.4906C481.279 73.4322 478.153 75.6749 474.623 77.2193C471.093 78.7636 467.232 79.5361 463.04 79.5361C457.598 79.5361 452.708 78.3225 448.369 75.8956C444.03 73.4687 440.61 70.1594 438.109 65.9674C435.609 61.7756 434.359 57.0687 434.359 51.8472C434.359 51.6851 434.36 51.5235 434.362 51.3624L449.149 51.1664Z" fill="#FF48AA"/>
<path d="M95.1143 78.433H80.6637V56.0601L95.1143 55.8683V78.433Z" fill="#FF48AA"/>
<path d="M130.966 78.433H116.515V55.5839L130.966 55.3922V78.433Z" fill="#FF48AA"/>
<path d="M164.244 78.433H149.793V55.1422L164.244 54.9505V78.433Z" fill="#FF48AA"/>
<path d="M199.398 78.433H184.836V54.6769L199.398 54.483V78.433Z" fill="#FF48AA"/>
<path d="M283.499 78.433H269.047V53.5579L283.499 53.3662V78.433Z" fill="#FF48AA"/>
<path d="M389.934 78.433H375.482V52.1445L389.934 51.9528V78.433Z" fill="#FF48AA"/>
<path d="M425.087 78.433H410.526V51.6792L425.087 51.486V78.433Z" fill="#FF48AA"/>
<path d="M245.986 53.8646C246.179 54.1404 246.366 54.4235 246.544 54.7156C247.867 56.7748 248.529 59.4223 248.529 62.6581C248.529 67.8795 246.654 72.0348 242.903 75.1236C239.152 78.1388 234.041 79.6467 227.569 79.6467C224.554 79.6467 221.576 79.2419 218.634 78.433C215.766 77.624 213.119 76.5208 210.692 75.1236C208.265 73.6527 206.168 71.8876 204.403 69.8284L213.008 61.114C214.846 63.1731 216.979 64.7174 219.406 65.747C221.833 66.7766 224.518 67.2911 227.459 67.2911C229.812 67.2911 231.578 66.9604 232.754 66.2985C234.004 65.6367 234.63 64.6438 234.63 63.3202C234.63 61.8494 233.968 60.7092 232.644 59.9002C231.394 59.0913 229.739 58.4292 227.68 57.9144C225.621 57.3261 223.451 56.7011 221.172 56.0393C219.65 55.5321 218.165 54.9351 216.713 54.2531L245.986 53.8646Z" fill="#060315"/>
<path d="M64.9375 78.433H50.5968V73.2577C49.1445 74.8217 47.4175 76.1432 45.4122 77.2193C42.397 78.7636 38.9772 79.5361 35.153 79.5361C30.2992 79.5361 25.9237 78.3225 22.026 75.8956C18.1282 73.4687 15.0761 70.1594 12.8698 65.9675C11.4144 63.2021 10.4385 60.2129 9.94324 56.9995L25.01 56.7991C25.2658 57.693 25.594 58.543 25.9968 59.3487C27.1735 61.4814 28.7548 63.1731 30.7404 64.4234C32.7995 65.6 35.1528 66.1879 37.8002 66.1879C41.845 66.1879 45.1181 64.8646 47.6185 62.2171C49.125 60.5776 50.1761 58.6573 50.7749 56.4572L64.9375 56.2691V78.433Z" fill="#060315"/>
<path d="M351.924 78.433H337.584V73.2577C336.131 74.8217 334.404 76.1432 332.399 77.2193C329.384 78.7636 325.964 79.5361 322.14 79.5361C317.286 79.5361 312.91 78.3225 309.013 75.8956C305.115 73.4687 302.063 70.1594 299.857 65.9675C297.841 62.1386 296.747 57.8803 296.572 53.1924L311.367 52.9963C311.507 55.3534 312.045 57.471 312.984 59.3487C314.16 61.4814 315.742 63.1731 317.727 64.4234C319.786 65.6 322.14 66.1879 324.787 66.1879C328.832 66.1879 332.105 64.8646 334.605 62.2171C336.927 59.6901 338.17 56.4969 338.336 52.6379L351.924 52.4577V78.433Z" fill="#060315"/>
<path d="M446.199 51.7373C446.199 54.5319 446.788 57.0325 447.964 59.2388C449.214 61.3713 450.869 63.0626 452.928 64.3128C455.061 65.4894 457.451 66.0781 460.099 66.0781C462.526 66.078 464.695 65.6733 466.607 64.8643C468.593 63.9818 470.284 62.7319 471.682 61.114L481.058 70.4906C478.337 73.4322 475.212 75.6749 471.682 77.2193C468.152 78.7636 464.291 79.5361 460.099 79.5361C454.657 79.5361 449.766 78.3225 445.427 75.8956C441.088 73.4687 437.668 70.1594 435.168 65.9675C432.667 61.7756 431.417 57.0687 431.417 51.8472C431.417 51.6984 431.418 51.5499 431.42 51.4019L446.205 51.2052C446.201 51.3809 446.199 51.5584 446.199 51.7373Z" fill="#060315"/>
<path d="M92.1726 78.433H77.7219V56.0996L92.1726 55.9071V78.433Z" fill="#060315"/>
<path d="M128.024 78.433H113.574V55.6234L128.024 55.431V78.433Z" fill="#060315"/>
<path d="M161.302 78.433H146.851V55.181L161.302 54.9893V78.433Z" fill="#060315"/>
<path d="M196.456 78.433H181.895V54.7156L196.456 54.5225V78.433Z" fill="#060315"/>
<path d="M280.557 78.433H266.105V53.5974L280.557 53.4057V78.433Z" fill="#060315"/>
<path d="M386.992 78.433H372.54V52.184L386.992 51.9916V78.433Z" fill="#060315"/>
<path d="M422.146 78.433H407.584V51.7187L422.146 51.5248V78.433Z" fill="#060315"/>
</svg>
