<svg width="23" height="22" viewBox="0 0 23 22" fill="none" xmlns="http://www.w3.org/2000/svg">
<path d="M11.0086 1.77212C16.1008 1.77212 20.2437 5.91168 20.2437 11C20.2437 16.0882 16.1008 20.2279 11.0086 20.2279C5.91637 20.2279 1.77349 16.0882 1.77349 11C1.77349 5.91168 5.91637 1.77212 11.0086 1.77212ZM11.0086 0C4.92871 0 0 4.92488 0 11C0 17.075 4.92871 22 11.0086 22C17.0885 22 22.0172 17.0751 22.0172 11C22.0172 4.92479 17.0884 0 11.0086 0Z" fill="#5B8DF9"/>
<path d="M15.2946 7.84372C13.5848 9.72039 11.9795 11.9359 10.7215 14.1594C10.459 14.6233 9.95985 14.9026 9.4271 14.8801C9.42248 14.8799 9.41761 14.8797 9.41273 14.8795C8.89496 14.8589 8.42879 14.5562 8.20169 14.0908C7.8015 13.2719 7.22734 12.4027 6.71489 11.6718C6.52681 11.4034 6.61646 11.0325 6.90438 10.8759C6.91032 10.8727 6.91618 10.8696 6.92212 10.8664C7.62815 10.4852 8.5102 10.7193 8.9353 11.3994C9.08951 11.6461 9.23617 11.8974 9.37468 12.1534C10.5504 10.521 11.875 9.00782 13.3219 7.64293C13.8057 7.18688 14.4763 7.02296 15.0941 7.17519C15.3924 7.24864 15.5015 7.6168 15.2946 7.84372Z" fill="#5B8DF9"/>
</svg>
