<svg width="320" height="200" viewBox="0 0 320 200" fill="none" xmlns="http://www.w3.org/2000/svg">
<rect width="320" height="200" rx="11" fill="#F1F5FF"/>
<rect x="21.75" y="86.9902" width="274.625" height="68.0139" rx="9.25" fill="white" stroke="#D5E2FF" stroke-width="1.5"/>
<path d="M90.0312 86.7227V155.754" stroke="#D5E2FF" stroke-width="1.5"/>
<path d="M158.58 86.7227V155.754" stroke="#D5E2FF" stroke-width="1.5"/>
<g filter="url(#filter0_ddiii_32_2248)">
<rect x="225" y="86.6484" width="72" height="69" rx="10" fill="#EBEEFE"/>
<rect x="225.5" y="87.1484" width="71" height="68" rx="9.5" stroke="#9DB3EB"/>
</g>
<path d="M44.0097 131.779C41.0009 128.77 39.3438 124.769 39.3438 120.514C39.3438 116.259 41.0008 112.259 44.0097 109.25C47.0186 106.241 51.019 104.584 55.2741 104.584C59.5292 104.584 63.5296 106.241 66.5385 109.25C69.5473 112.259 71.2044 116.259 71.2044 120.514C71.2044 124.769 69.5474 128.77 66.5385 131.779C63.5296 134.787 59.5292 136.445 55.2741 136.445C51.019 136.445 47.0185 134.787 44.0097 131.779ZM44.9326 110.173C42.1703 112.935 40.6491 116.608 40.6491 120.514C40.6491 124.421 42.1703 128.093 44.9326 130.856C47.695 133.618 51.3676 135.139 55.2741 135.139C59.1806 135.139 62.8532 133.618 65.6155 130.856C68.3778 128.093 69.8991 124.421 69.8991 120.514C69.8991 116.608 68.3778 112.935 65.6155 110.173C62.8532 107.411 59.1806 105.889 55.2741 105.889C51.3676 105.889 47.695 107.411 44.9326 110.173Z" fill="#060315"/>
<path d="M60.2363 120.422C61.3848 120.422 62.3158 119.192 62.3158 117.675C62.3158 116.158 61.3848 114.928 60.2363 114.928C59.0878 114.928 58.1568 116.158 58.1568 117.675C58.1568 119.192 59.0878 120.422 60.2363 120.422Z" fill="#060315"/>
<path d="M49.8835 120.422C51.032 120.422 51.963 119.192 51.963 117.675C51.963 116.158 51.032 114.928 49.8835 114.928C48.735 114.928 47.804 116.158 47.804 117.675C47.804 119.192 48.735 120.422 49.8835 120.422Z" fill="#060315"/>
<path d="M49.214 128.561C49.3882 128.561 49.562 128.492 49.6904 128.354C51.1785 126.765 53.057 125.959 55.2739 125.959C57.4908 125.959 59.3694 126.765 60.8575 128.354C61.1037 128.617 61.5167 128.631 61.7799 128.385C62.043 128.138 62.0566 127.725 61.8102 127.462C60.0901 125.625 57.8298 124.654 55.2739 124.654C52.6815 124.654 50.4824 125.599 48.7377 127.462C48.4913 127.725 48.5048 128.138 48.768 128.385C48.8939 128.503 49.0542 128.561 49.214 128.561Z" fill="#060315"/>
<path d="M272.195 108.314C269.187 105.306 265.185 103.648 260.931 103.648C256.675 103.648 252.675 105.306 249.666 108.314C246.657 111.323 245 115.324 245 119.578C245 123.834 246.657 127.834 249.666 130.843C252.675 133.852 256.675 135.509 260.931 135.509C265.185 135.509 269.187 133.852 272.195 130.843C275.204 127.834 276.861 123.834 276.861 119.578C276.861 115.324 275.204 111.323 272.195 108.314ZM255.54 113.993C256.689 113.993 257.62 115.223 257.62 116.74C257.62 118.257 256.689 119.487 255.54 119.487C254.391 119.487 253.46 118.257 253.46 116.74C253.46 115.223 254.391 113.993 255.54 113.993ZM267.808 123.98C267.808 127.778 264.729 130.858 260.931 130.858C257.132 130.858 254.054 127.778 254.054 123.98V123.575H267.808V123.98ZM265.893 119.487C264.744 119.487 263.813 118.257 263.813 116.74C263.813 115.223 264.744 113.993 265.893 113.993C267.042 113.993 267.972 115.223 267.972 116.74C267.972 118.257 267.042 119.487 265.893 119.487Z" fill="url(#paint0_linear_32_2248)"/>
<path d="M112.558 131.779C109.549 128.77 107.892 124.769 107.892 120.514C107.892 116.259 109.549 112.259 112.558 109.25C115.567 106.241 119.568 104.584 123.823 104.584C128.078 104.584 132.078 106.241 135.087 109.25C138.096 112.259 139.753 116.259 139.753 120.514C139.753 124.769 138.096 128.77 135.087 131.779C132.078 134.787 128.078 136.445 123.823 136.445C119.568 136.445 115.567 134.787 112.558 131.779ZM113.481 110.173C110.719 112.935 109.198 116.608 109.198 120.514C109.198 124.421 110.719 128.093 113.481 130.856C116.244 133.618 119.916 135.139 123.823 135.139C127.729 135.139 131.402 133.618 134.164 130.856C136.926 128.093 138.448 124.421 138.448 120.514C138.448 116.608 136.926 112.935 134.164 110.173C131.402 107.411 127.729 105.889 123.823 105.889C119.916 105.889 116.244 107.411 113.481 110.173Z" fill="#060315"/>
<path d="M128.785 120.424C129.933 120.424 130.864 119.194 130.864 117.677C130.864 116.16 129.933 114.93 128.785 114.93C127.636 114.93 126.705 116.16 126.705 117.677C126.705 119.194 127.636 120.424 128.785 120.424Z" fill="#060315"/>
<path d="M118.432 120.424C119.581 120.424 120.512 119.194 120.512 117.677C120.512 116.16 119.581 114.93 118.432 114.93C117.284 114.93 116.353 116.16 116.353 117.677C116.353 119.194 117.284 120.424 118.432 120.424Z" fill="#060315"/>
<path d="M118.179 127.264H128.787C129.148 127.264 129.44 126.972 129.44 126.612C129.44 126.251 129.148 125.959 128.787 125.959H118.179C117.818 125.959 117.526 126.251 117.526 126.612C117.526 126.972 117.818 127.264 118.179 127.264Z" fill="#060315"/>
<path d="M181.107 131.779C178.098 128.77 176.441 124.769 176.441 120.514C176.441 116.259 178.098 112.259 181.107 109.25C184.115 106.241 188.116 104.584 192.371 104.584C196.626 104.584 200.627 106.241 203.635 109.25C206.644 112.259 208.301 116.259 208.301 120.514C208.301 124.769 206.644 128.77 203.635 131.779C200.627 134.787 196.626 136.445 192.371 136.445C188.116 136.445 184.115 134.787 181.107 131.779ZM182.03 110.173C179.267 112.935 177.746 116.608 177.746 120.514C177.746 124.421 179.267 128.093 182.03 130.856C184.792 133.618 188.465 135.139 192.371 135.139C196.277 135.139 199.95 133.618 202.712 130.856C205.475 128.093 206.996 124.421 206.996 120.514C206.996 116.608 205.475 112.935 202.712 110.173C199.95 107.411 196.277 105.889 192.371 105.889C188.465 105.889 184.792 107.411 182.03 110.173Z" fill="#060315"/>
<path d="M197.333 120.424C198.482 120.424 199.413 119.194 199.413 117.677C199.413 116.16 198.482 114.93 197.333 114.93C196.185 114.93 195.254 116.16 195.254 117.677C195.254 119.194 196.185 120.424 197.333 120.424Z" fill="#060315"/>
<path d="M186.98 120.424C188.129 120.424 189.06 119.194 189.06 117.677C189.06 116.16 188.129 114.93 186.98 114.93C185.832 114.93 184.901 116.16 184.901 117.677C184.901 119.194 185.832 120.424 186.98 120.424Z" fill="#060315"/>
<path d="M192.371 129.239C194.963 129.239 197.163 128.294 198.907 126.431C199.154 126.168 199.14 125.755 198.877 125.508C198.614 125.262 198.201 125.275 197.955 125.539C196.466 127.128 194.588 127.933 192.371 127.933C190.154 127.933 188.276 127.128 186.788 125.539C186.541 125.276 186.128 125.262 185.865 125.508C185.602 125.755 185.588 126.168 185.835 126.431C187.555 128.268 189.815 129.239 192.371 129.239Z" fill="#060315"/>
<path d="M230.714 37.5H293.055C296.093 37.5 298.555 39.9624 298.555 43V64.791C298.555 67.8286 296.093 70.291 293.055 70.291H272.303C270.447 70.291 268.678 71.0851 267.445 72.4727L263.625 76.7705C262.67 77.8456 261.006 77.8941 259.989 76.877L255.307 72.1953C254.088 70.9763 252.434 70.291 250.71 70.291H230.714C227.677 70.291 225.214 67.8286 225.214 64.791V43C225.214 39.9624 227.677 37.5 230.714 37.5Z" fill="white" stroke="#D5E2FF"/>
<path d="M242.008 59.2057H240.494V48.0371H242.008V52.8413H247.538V48.0371H249.052V59.2057H247.538V54.247H242.008V59.2057Z" fill="#060315"/>
<path d="M253.295 59.391C251.673 59.391 250.715 58.4796 250.715 57.1048C250.715 55.7145 251.75 54.8495 253.527 54.7104L255.906 54.5251V54.3088C255.906 53.0421 255.149 52.5941 254.129 52.5941C252.909 52.5941 252.214 53.1348 252.214 54.0462H250.947C250.947 52.4706 252.245 51.4356 254.191 51.4356C256.06 51.4356 257.327 52.4242 257.327 54.4633V59.2057H256.091L255.936 57.9853C255.55 58.8504 254.515 59.391 253.295 59.391ZM253.712 58.2634C255.087 58.2634 255.921 57.3674 255.921 55.9462V55.5446L253.99 55.6991C252.708 55.8227 252.183 56.317 252.183 57.0585C252.183 57.8617 252.77 58.2634 253.712 58.2634Z" fill="#060315"/>
<path d="M259.029 62.5887V51.6518H260.342L260.45 53.0112C260.96 51.9762 261.979 51.4356 263.184 51.4356C265.347 51.4356 266.691 53.0576 266.691 55.3747C266.691 57.6764 265.424 59.4065 263.184 59.4065C261.979 59.4065 260.975 58.8967 260.481 57.9699V62.5887H259.029ZM260.496 55.4365C260.496 56.9812 261.392 58.0935 262.875 58.0935C264.358 58.0935 265.239 56.9812 265.239 55.4365C265.239 53.8763 264.358 52.7641 262.875 52.7641C261.392 52.7641 260.496 53.8608 260.496 55.4365Z" fill="#060315"/>
<path d="M267.982 62.5887V51.6518H269.295L269.403 53.0112C269.913 51.9762 270.933 51.4356 272.138 51.4356C274.3 51.4356 275.644 53.0576 275.644 55.3747C275.644 57.6764 274.378 59.4065 272.138 59.4065C270.933 59.4065 269.929 58.8967 269.434 57.9699V62.5887H267.982ZM269.45 55.4365C269.45 56.9812 270.346 58.0935 271.829 58.0935C273.312 58.0935 274.192 56.9812 274.192 55.4365C274.192 53.8763 273.312 52.7641 271.829 52.7641C270.346 52.7641 269.45 53.8608 269.45 55.4365Z" fill="#060315"/>
<path d="M275.953 62.5887V61.3992H276.927C277.622 61.3992 278.178 61.2911 278.533 60.3333L278.796 59.6073L275.753 51.6518H277.282L279.475 57.7382L281.715 51.6518H283.214L279.645 60.9049C279.136 62.2025 278.379 62.7432 277.22 62.7432C276.741 62.7432 276.34 62.6814 275.953 62.5887Z" fill="#060315"/>
<g filter="url(#filter1_d_32_2248)">
<path d="M286.236 159.271L277.573 162.004C277.283 162.095 277.051 162.314 276.941 162.598L272.92 173.038C272.582 173.914 271.332 173.884 271.037 172.992L263.655 150.632C263.391 149.834 264.169 149.087 264.955 149.382L286.286 157.381C287.176 157.714 287.142 158.985 286.236 159.271Z" fill="#060315"/>
<path d="M262.705 150.945C262.178 149.35 263.734 147.856 265.307 148.445L286.637 156.444C288.417 157.112 288.349 159.653 286.536 160.225L277.874 162.957L273.854 173.397C273.178 175.15 270.677 175.089 270.088 173.306L262.705 150.945Z" stroke="white" stroke-width="2"/>
</g>
<defs>
<filter id="filter0_ddiii_32_2248" x="221" y="80.6484" width="80" height="83" filterUnits="userSpaceOnUse" color-interpolation-filters="sRGB">
<feFlood flood-opacity="0" result="BackgroundImageFix"/>
<feColorMatrix in="SourceAlpha" type="matrix" values="0 0 0 0 0 0 0 0 0 0 0 0 0 0 0 0 0 0 127 0" result="hardAlpha"/>
<feOffset dy="1"/>
<feGaussianBlur stdDeviation="0.5"/>
<feComposite in2="hardAlpha" operator="out"/>
<feColorMatrix type="matrix" values="0 0 0 0 0.635684 0 0 0 0 0.667468 0 0 0 0 0.76282 0 0 0 0.3 0"/>
<feBlend mode="normal" in2="BackgroundImageFix" result="effect1_dropShadow_32_2248"/>
<feColorMatrix in="SourceAlpha" type="matrix" values="0 0 0 0 0 0 0 0 0 0 0 0 0 0 0 0 0 0 127 0" result="hardAlpha"/>
<feOffset dy="4"/>
<feGaussianBlur stdDeviation="2"/>
<feComposite in2="hardAlpha" operator="out"/>
<feColorMatrix type="matrix" values="0 0 0 0 0 0 0 0 0 0 0 0 0 0 0 0 0 0 0.06 0"/>
<feBlend mode="normal" in2="effect1_dropShadow_32_2248" result="effect2_dropShadow_32_2248"/>
<feBlend mode="normal" in="SourceGraphic" in2="effect2_dropShadow_32_2248" result="shape"/>
<feColorMatrix in="SourceAlpha" type="matrix" values="0 0 0 0 0 0 0 0 0 0 0 0 0 0 0 0 0 0 127 0" result="hardAlpha"/>
<feOffset dy="-6"/>
<feGaussianBlur stdDeviation="4"/>
<feComposite in2="hardAlpha" operator="arithmetic" k2="-1" k3="1"/>
<feColorMatrix type="matrix" values="0 0 0 0 0.786746 0 0 0 0 0.814653 0 0 0 0 0.926282 0 0 0 0.6 0"/>
<feBlend mode="normal" in2="shape" result="effect3_innerShadow_32_2248"/>
<feColorMatrix in="SourceAlpha" type="matrix" values="0 0 0 0 0 0 0 0 0 0 0 0 0 0 0 0 0 0 127 0" result="hardAlpha"/>
<feOffset dy="-2"/>
<feGaussianBlur stdDeviation="1"/>
<feComposite in2="hardAlpha" operator="arithmetic" k2="-1" k3="1"/>
<feColorMatrix type="matrix" values="0 0 0 0 0.941176 0 0 0 0 0.952941 0 0 0 0 1 0 0 0 0.41 0"/>
<feBlend mode="normal" in2="effect3_innerShadow_32_2248" result="effect4_innerShadow_32_2248"/>
<feColorMatrix in="SourceAlpha" type="matrix" values="0 0 0 0 0 0 0 0 0 0 0 0 0 0 0 0 0 0 127 0" result="hardAlpha"/>
<feOffset dy="4"/>
<feGaussianBlur stdDeviation="2"/>
<feComposite in2="hardAlpha" operator="arithmetic" k2="-1" k3="1"/>
<feColorMatrix type="matrix" values="0 0 0 0 1 0 0 0 0 1 0 0 0 0 1 0 0 0 0.25 0"/>
<feBlend mode="normal" in2="effect4_innerShadow_32_2248" result="effect5_innerShadow_32_2248"/>
</filter>
<filter id="filter1_d_32_2248" x="257.599" y="147.312" width="35.336" height="36.3662" filterUnits="userSpaceOnUse" color-interpolation-filters="sRGB">
<feFlood flood-opacity="0" result="BackgroundImageFix"/>
<feColorMatrix in="SourceAlpha" type="matrix" values="0 0 0 0 0 0 0 0 0 0 0 0 0 0 0 0 0 0 127 0" result="hardAlpha"/>
<feOffset dy="4"/>
<feGaussianBlur stdDeviation="2"/>
<feComposite in2="hardAlpha" operator="out"/>
<feColorMatrix type="matrix" values="0 0 0 0 0 0 0 0 0 0 0 0 0 0 0 0 0 0 0.08 0"/>
<feBlend mode="normal" in2="BackgroundImageFix" result="effect1_dropShadow_32_2248"/>
<feBlend mode="normal" in="SourceGraphic" in2="effect1_dropShadow_32_2248" result="shape"/>
</filter>
<linearGradient id="paint0_linear_32_2248" x1="282.045" y1="135.713" x2="248.545" y2="106.213" gradientUnits="userSpaceOnUse">
<stop stop-color="#91CEFF"/>
<stop offset="0.528846" stop-color="#5A64F9"/>
<stop offset="1" stop-color="#B249FB"/>
</linearGradient>
</defs>
</svg>
