<svg width="98" height="19" viewBox="0 0 98 19" fill="none" xmlns="http://www.w3.org/2000/svg">
<path d="M8.80267 2.54728C9.12406 1.67484 10.358 1.67484 10.6794 2.54728L11.9831 6.08646C12.1238 6.46834 12.4819 6.72687 12.8886 6.74025L16.6831 6.86501C17.6223 6.89588 18.0042 8.08771 17.2579 8.65868L14.2901 10.9292C13.9615 11.1807 13.8216 11.6085 13.9383 12.0055L14.9873 15.5741C15.2506 16.47 14.2513 17.2059 13.4739 16.6886L10.295 14.5734C9.95943 14.3501 9.52262 14.3501 9.18706 14.5734L6.00814 16.6886C5.23073 17.2059 4.23142 16.47 4.49476 15.5741L5.54374 12.0055C5.66043 11.6085 5.52058 11.1807 5.19196 10.9292L2.22418 8.65868C1.47787 8.08771 1.85978 6.89588 2.79895 6.86501L6.59343 6.74025C7.00018 6.72687 7.35825 6.46834 7.49893 6.08646L8.80267 2.54728Z" fill="#F3C11B"/>
<path d="M28.3115 2.54728C28.6328 1.67484 29.8668 1.67484 30.1882 2.54728L31.4919 6.08646C31.6326 6.46834 31.9907 6.72687 32.3974 6.74025L36.1919 6.86501C37.1311 6.89588 37.513 8.08771 36.7667 8.65868L33.7989 10.9292C33.4703 11.1807 33.3304 11.6085 33.4471 12.0055L34.4961 15.5741C34.7594 16.47 33.7601 17.2059 32.9827 16.6886L29.8038 14.5734C29.4682 14.3501 29.0314 14.3501 28.6958 14.5734L25.5169 16.6886C24.7395 17.2059 23.7402 16.47 24.0036 15.5741L25.0525 12.0055C25.1692 11.6085 25.0294 11.1807 24.7007 10.9292L21.733 8.65868C20.9867 8.08771 21.3686 6.89588 22.3077 6.86501L26.1022 6.74025C26.509 6.72687 26.867 6.46834 27.0077 6.08646L28.3115 2.54728Z" fill="#F3C11B"/>
<path d="M47.8202 2.54728C48.1416 1.67484 49.3756 1.67484 49.697 2.54728L51.0007 6.08646C51.1414 6.46834 51.4995 6.72687 51.9062 6.74025L55.7007 6.86501C56.6398 6.89588 57.0218 8.08771 56.2754 8.65868L53.3077 10.9292C52.979 11.1807 52.8392 11.6085 52.9559 12.0055L54.0049 15.5741C54.2682 16.47 53.2689 17.2059 52.4915 16.6886L49.3126 14.5734C48.977 14.3501 48.5402 14.3501 48.2046 14.5734L45.0257 16.6886C44.2483 17.2059 43.249 16.47 43.5123 15.5741L44.5613 12.0055C44.678 11.6085 44.5382 11.1807 44.2095 10.9292L41.2418 8.65868C40.4955 8.08771 40.8774 6.89588 41.8165 6.86501L45.611 6.74025C46.0178 6.72687 46.3758 6.46834 46.5165 6.08646L47.8202 2.54728Z" fill="#F3C11B"/>
<path d="M67.3288 2.54728C67.6502 1.67484 68.8841 1.67484 69.2055 2.54728L70.5093 6.08646C70.6499 6.46834 71.008 6.72687 71.4147 6.74025L75.2092 6.86501C76.1484 6.89588 76.5303 8.08771 75.784 8.65868L72.8162 10.9292C72.4876 11.1807 72.3477 11.6085 72.4644 12.0055L73.5134 15.5741C73.7768 16.47 72.7774 17.2059 72 16.6886L68.8211 14.5734C68.4856 14.3501 68.0487 14.3501 67.7132 14.5734L64.5343 16.6886C63.7569 17.2059 62.7575 16.47 63.0209 15.5741L64.0699 12.0055C64.1865 11.6085 64.0467 11.1807 63.7181 10.9292L60.7503 8.65868C60.004 8.08771 60.3859 6.89588 61.3251 6.86501L65.1196 6.74025C65.5263 6.72687 65.8844 6.46834 66.025 6.08646L67.3288 2.54728Z" fill="#F3C11B"/>
<path d="M86.8373 2.54728C87.1587 1.67484 88.3927 1.67484 88.7141 2.54728L90.0178 6.08646C90.1585 6.46834 90.5165 6.72687 90.9233 6.74025L94.7178 6.86501C95.6569 6.89588 96.0388 8.08771 95.2925 8.65868L92.3248 10.9292C91.9961 11.1807 91.8563 11.6085 91.973 12.0055L93.022 15.5741C93.2853 16.47 92.286 17.2059 91.5086 16.6886L88.3297 14.5734C87.9941 14.3501 87.5573 14.3501 87.2217 14.5734L84.0428 16.6886C83.2654 17.2059 82.2661 16.47 82.5294 15.5741L83.5784 12.0055C83.6951 11.6085 83.5553 11.1807 83.2266 10.9292L80.2589 8.65868C79.5125 8.08771 79.8945 6.89588 80.8336 6.86501L84.6281 6.74025C85.0348 6.72687 85.3929 6.46834 85.5336 6.08646L86.8373 2.54728Z" fill="#F3C11B"/>
</svg>
