<svg width="250" height="250" viewBox="0 0 250 250" fill="none" xmlns="http://www.w3.org/2000/svg">
<rect width="250" height="250" rx="20" fill="url(#paint0_linear_32_2043)"/>
<path d="M73.11 191.95L62.05 207H51.83L64.08 190.69C62.82 191.04 61.49 191.25 60.23 191.25C49.66 191.25 42.52 183.83 42.52 173.47C42.52 162.55 50.64 154.92 61.56 154.92C72.62 154.92 80.88 163.04 80.88 173.54C80.88 179.7 78.85 184.18 73.11 191.95ZM71.71 173.47C71.71 167.24 67.58 162.9 61.56 162.9C55.68 162.9 51.55 167.24 51.55 173.47C51.55 179.63 55.68 183.9 61.56 183.9C67.65 183.9 71.71 179.63 71.71 173.47ZM123.134 197.27H116.904V207H108.434V197.27H82.4643V189.43L105.634 155.83H116.904V189.43H123.134V197.27ZM91.9843 189.43H108.434V165.49L91.9843 189.43ZM153.478 168.29C153.478 176.2 147.878 181.73 140.108 181.73C132.338 181.73 126.738 176.2 126.738 168.29C126.738 160.45 132.338 154.85 140.108 154.85C147.878 154.85 153.478 160.45 153.478 168.29ZM181.548 155.9L142.698 207H134.158L173.008 155.9H181.548ZM146.688 168.29C146.688 164.23 144.028 161.43 140.108 161.43C136.188 161.43 133.598 164.23 133.598 168.29C133.598 172.35 136.258 175.15 140.108 175.15C144.028 175.15 146.688 172.35 146.688 168.29ZM189.038 194.47C189.038 202.31 183.508 207.91 175.738 207.91C167.898 207.91 162.368 202.31 162.368 194.47C162.368 186.63 167.898 181.03 175.738 181.03C183.508 181.03 189.038 186.63 189.038 194.47ZM182.248 194.47C182.248 190.41 179.588 187.61 175.738 187.61C171.818 187.61 169.158 190.41 169.158 194.47C169.158 198.53 171.818 201.33 175.738 201.33C179.588 201.33 182.248 198.53 182.248 194.47Z" fill="#9649F9"/>
<path d="M47.46 62.16C46.0067 62.16 44.7933 61.8533 43.82 61.24C42.86 60.6133 42.14 59.76 41.66 58.68C41.1933 57.5867 40.96 56.34 40.96 54.94C40.96 53.5533 41.2 52.32 41.68 51.24C42.16 50.1467 42.88 49.2867 43.84 48.66C44.8133 48.02 46.0333 47.7 47.5 47.7C48.54 47.7 49.4333 47.8667 50.18 48.2C50.94 48.52 51.5533 48.9667 52.02 49.54C52.4867 50.1133 52.8067 50.7867 52.98 51.56H51.22C51.02 50.8667 50.5867 50.3133 49.92 49.9C49.2667 49.4867 48.44 49.28 47.44 49.28C46.32 49.28 45.4133 49.5467 44.72 50.08C44.04 50.6 43.54 51.2867 43.22 52.14C42.9 52.98 42.74 53.8933 42.74 54.88C42.74 55.92 42.9067 56.8733 43.24 57.74C43.5733 58.6067 44.0933 59.3 44.8 59.82C45.5067 60.3267 46.4067 60.58 47.5 60.58C48.1667 60.58 48.76 60.4867 49.28 60.3C49.8133 60.1133 50.2533 59.8467 50.6 59.5C50.96 59.1533 51.2067 58.7533 51.34 58.3H53.24C53.04 59.0733 52.68 59.7533 52.16 60.34C51.6533 60.9133 51.0067 61.36 50.22 61.68C49.4333 62 48.5133 62.16 47.46 62.16ZM59.822 62.12C58.3687 62.12 57.262 61.7333 56.502 60.96C55.7554 60.1867 55.382 59 55.382 57.4V51.46H57.082V57.32C57.082 58.0133 57.182 58.6067 57.382 59.1C57.582 59.5933 57.882 59.9733 58.282 60.24C58.6954 60.4933 59.2087 60.62 59.822 60.62C60.462 60.62 60.9887 60.4933 61.402 60.24C61.8154 59.9733 62.1154 59.5933 62.302 59.1C62.502 58.6067 62.602 58.0133 62.602 57.32V51.46H64.302V57.4C64.302 59 63.9154 60.1867 63.142 60.96C62.382 61.7333 61.2754 62.12 59.822 62.12ZM70.7855 62.12C70.3055 62.12 69.8188 62.0733 69.3255 61.98C68.8455 61.8867 68.3921 61.7267 67.9655 61.5C67.5521 61.2733 67.2055 60.9667 66.9255 60.58C66.6455 60.1933 66.4655 59.7133 66.3855 59.14H68.1055C68.2388 59.5 68.4521 59.7933 68.7455 60.02C69.0521 60.2333 69.3921 60.3867 69.7655 60.48C70.1521 60.5733 70.5188 60.62 70.8655 60.62C71.0788 60.62 71.3255 60.6067 71.6055 60.58C71.8855 60.5533 72.1521 60.4933 72.4055 60.4C72.6721 60.2933 72.8855 60.14 73.0455 59.94C73.2188 59.74 73.3055 59.46 73.3055 59.1C73.3055 58.8333 73.2455 58.6133 73.1255 58.44C73.0055 58.2667 72.8388 58.1267 72.6255 58.02C72.4121 57.9 72.1521 57.8133 71.8455 57.76C71.2188 57.6267 70.5455 57.5 69.8255 57.38C69.1188 57.26 68.4921 57.0333 67.9455 56.7C67.7588 56.58 67.5855 56.4467 67.4255 56.3C67.2788 56.14 67.1521 55.9667 67.0455 55.78C66.9388 55.58 66.8521 55.3667 66.7855 55.14C66.7321 54.9 66.7055 54.64 66.7055 54.36C66.7055 53.84 66.8055 53.3933 67.0055 53.02C67.2188 52.6333 67.5121 52.32 67.8855 52.08C68.2588 51.8267 68.6855 51.64 69.1655 51.52C69.6588 51.4 70.1855 51.34 70.7455 51.34C71.4388 51.34 72.0588 51.4533 72.6055 51.68C73.1655 51.8933 73.6255 52.2133 73.9855 52.64C74.3455 53.0533 74.5588 53.5667 74.6255 54.18H73.0455C72.9521 53.7933 72.6988 53.48 72.2855 53.24C71.8721 52.9867 71.3455 52.86 70.7055 52.86C70.4921 52.86 70.2521 52.88 69.9855 52.92C69.7188 52.9467 69.4655 53.0133 69.2255 53.12C68.9855 53.2133 68.7855 53.36 68.6255 53.56C68.4655 53.7467 68.3855 54 68.3855 54.32C68.3855 54.6133 68.4588 54.86 68.6055 55.06C68.7655 55.26 68.9855 55.42 69.2655 55.54C69.5455 55.66 69.8655 55.76 70.2255 55.84C70.6921 55.9333 71.2055 56.0333 71.7655 56.14C72.3255 56.2333 72.7655 56.3333 73.0855 56.44C73.5121 56.5733 73.8655 56.76 74.1455 57C74.4388 57.24 74.6521 57.5267 74.7855 57.86C74.9321 58.1933 75.0055 58.58 75.0055 59.02C75.0055 59.6467 74.8788 60.16 74.6255 60.56C74.3855 60.96 74.0588 61.2733 73.6455 61.5C73.2321 61.7267 72.7721 61.8867 72.2655 61.98C71.7721 62.0733 71.2788 62.12 70.7855 62.12ZM81.0813 62.12C79.9746 62.12 79.1946 61.82 78.7413 61.22C78.3013 60.62 78.0813 59.7667 78.0813 58.66V52.96H76.3613V51.46H78.0813V48.3H79.7813V51.46H83.0213V52.96H79.7813V58.44C79.7813 58.84 79.8146 59.2067 79.8813 59.54C79.9479 59.86 80.0879 60.12 80.3013 60.32C80.5146 60.5067 80.8346 60.6067 81.2613 60.62C81.5679 60.62 81.8346 60.5667 82.0613 60.46C82.3013 60.3533 82.5013 60.2267 82.6613 60.08L83.4013 61.32C83.1746 61.5067 82.9346 61.66 82.6813 61.78C82.4413 61.9 82.1879 61.9867 81.9213 62.04C81.6679 62.0933 81.3879 62.12 81.0813 62.12ZM89.6509 62.12C88.5443 62.12 87.6176 61.8933 86.8709 61.44C86.1243 60.9733 85.5643 60.3333 85.1909 59.52C84.8309 58.7067 84.6509 57.78 84.6509 56.74C84.6509 55.6867 84.8376 54.76 85.2109 53.96C85.5843 53.1467 86.1443 52.5067 86.8909 52.04C87.6376 51.5733 88.5709 51.34 89.6909 51.34C90.7976 51.34 91.7176 51.5733 92.4509 52.04C93.1976 52.5067 93.7509 53.1467 94.1109 53.96C94.4843 54.76 94.6709 55.6867 94.6709 56.74C94.6709 57.78 94.4843 58.7067 94.1109 59.52C93.7376 60.3333 93.1776 60.9733 92.4309 61.44C91.6976 61.8933 90.7709 62.12 89.6509 62.12ZM89.6509 60.62C90.4243 60.62 91.0509 60.4467 91.5309 60.1C92.0243 59.7533 92.3843 59.2867 92.6109 58.7C92.8509 58.1133 92.9709 57.46 92.9709 56.74C92.9709 56.02 92.8509 55.3667 92.6109 54.78C92.3843 54.1933 92.0243 53.7267 91.5309 53.38C91.0509 53.0333 90.4243 52.86 89.6509 52.86C88.8909 52.86 88.2643 53.0333 87.7709 53.38C87.2909 53.7267 86.9309 54.1933 86.6909 54.78C86.4643 55.3667 86.3509 56.02 86.3509 56.74C86.3509 57.46 86.4643 58.1133 86.6909 58.7C86.9309 59.2867 87.2909 59.7533 87.7709 60.1C88.2643 60.4467 88.8909 60.62 89.6509 60.62ZM96.9455 62V51.46H98.5855L98.6655 52.72C98.8921 52.4 99.1455 52.14 99.4255 51.94C99.7188 51.74 100.039 51.5933 100.385 51.5C100.745 51.3933 101.125 51.34 101.525 51.34C102.259 51.34 102.852 51.5 103.305 51.82C103.759 52.1267 104.099 52.5333 104.325 53.04C104.565 52.68 104.839 52.3733 105.145 52.12C105.465 51.8667 105.819 51.6733 106.205 51.54C106.605 51.4067 107.045 51.34 107.525 51.34C108.299 51.34 108.919 51.5067 109.385 51.84C109.865 52.1733 110.212 52.6267 110.425 53.2C110.639 53.76 110.745 54.3933 110.745 55.1V62H109.045V55.96C109.045 55.6133 109.025 55.26 108.985 54.9C108.959 54.54 108.879 54.2067 108.745 53.9C108.612 53.58 108.412 53.3267 108.145 53.14C107.892 52.94 107.532 52.84 107.065 52.84C106.625 52.84 106.252 52.9467 105.945 53.16C105.652 53.36 105.412 53.6333 105.225 53.98C105.039 54.3267 104.905 54.7 104.825 55.1C104.745 55.4867 104.705 55.8733 104.705 56.26V62H103.005V55.94C103.005 55.6067 102.985 55.26 102.945 54.9C102.919 54.54 102.845 54.2067 102.725 53.9C102.619 53.58 102.432 53.3267 102.165 53.14C101.912 52.94 101.559 52.84 101.105 52.84C100.465 52.84 99.9655 53.0267 99.6055 53.4C99.2455 53.76 98.9921 54.2067 98.8455 54.74C98.7121 55.26 98.6455 55.7733 98.6455 56.28V62H96.9455ZM117.892 62.12C116.772 62.12 115.846 61.8933 115.112 61.44C114.379 60.9733 113.832 60.3333 113.472 59.52C113.112 58.7067 112.932 57.78 112.932 56.74C112.932 55.6867 113.119 54.76 113.492 53.96C113.879 53.1467 114.439 52.5067 115.172 52.04C115.906 51.5733 116.806 51.34 117.872 51.34C118.699 51.34 119.406 51.5 119.992 51.82C120.592 52.1267 121.086 52.54 121.472 53.06C121.859 53.58 122.139 54.1533 122.312 54.78C122.486 55.3933 122.559 56.0133 122.532 56.64C122.519 56.76 122.506 56.88 122.492 57C122.492 57.12 122.486 57.24 122.472 57.36H114.652C114.706 57.9733 114.859 58.5267 115.112 59.02C115.366 59.5133 115.726 59.9067 116.192 60.2C116.659 60.48 117.239 60.62 117.932 60.62C118.279 60.62 118.626 60.58 118.972 60.5C119.332 60.4067 119.652 60.2533 119.932 60.04C120.226 59.8267 120.432 59.54 120.552 59.18H122.292C122.132 59.86 121.832 60.42 121.392 60.86C120.952 61.2867 120.426 61.6067 119.812 61.82C119.199 62.02 118.559 62.12 117.892 62.12ZM114.692 55.88H120.792C120.779 55.28 120.646 54.7533 120.392 54.3C120.139 53.8467 119.792 53.4933 119.352 53.24C118.926 52.9867 118.412 52.86 117.812 52.86C117.159 52.86 116.606 53 116.152 53.28C115.712 53.56 115.372 53.9267 115.132 54.38C114.892 54.8333 114.746 55.3333 114.692 55.88ZM124.797 62V51.46H126.437L126.517 53.1C126.784 52.6867 127.09 52.3533 127.437 52.1C127.797 51.8467 128.19 51.66 128.617 51.54C129.057 51.4067 129.53 51.34 130.037 51.34C130.13 51.34 130.217 51.34 130.297 51.34C130.39 51.34 130.484 51.34 130.577 51.34V52.94H129.957C129.13 52.94 128.457 53.12 127.937 53.48C127.43 53.8267 127.064 54.3 126.837 54.9C126.61 55.4867 126.497 56.14 126.497 56.86V62H124.797ZM41.34 92V81.46H42.98L43.06 83.1C43.3267 82.6867 43.6333 82.3533 43.98 82.1C44.34 81.8467 44.7333 81.66 45.16 81.54C45.6 81.4067 46.0733 81.34 46.58 81.34C46.6733 81.34 46.76 81.34 46.84 81.34C46.9333 81.34 47.0267 81.34 47.12 81.34V82.94H46.5C45.6733 82.94 45 83.12 44.48 83.48C43.9733 83.8267 43.6067 84.3 43.38 84.9C43.1533 85.4867 43.04 86.14 43.04 86.86V92H41.34ZM53.1656 92.12C52.0456 92.12 51.119 91.8933 50.3856 91.44C49.6523 90.9733 49.1056 90.3333 48.7456 89.52C48.3856 88.7067 48.2056 87.78 48.2056 86.74C48.2056 85.6867 48.3923 84.76 48.7656 83.96C49.1523 83.1467 49.7123 82.5067 50.4456 82.04C51.179 81.5733 52.079 81.34 53.1456 81.34C53.9723 81.34 54.679 81.5 55.2656 81.82C55.8656 82.1267 56.359 82.54 56.7456 83.06C57.1323 83.58 57.4123 84.1533 57.5856 84.78C57.759 85.3933 57.8323 86.0133 57.8056 86.64C57.7923 86.76 57.779 86.88 57.7656 87C57.7656 87.12 57.759 87.24 57.7456 87.36H49.9256C49.979 87.9733 50.1323 88.5267 50.3856 89.02C50.639 89.5133 50.999 89.9067 51.4656 90.2C51.9323 90.48 52.5123 90.62 53.2056 90.62C53.5523 90.62 53.899 90.58 54.2456 90.5C54.6056 90.4067 54.9256 90.2533 55.2056 90.04C55.499 89.8267 55.7056 89.54 55.8256 89.18H57.5656C57.4056 89.86 57.1056 90.42 56.6656 90.86C56.2256 91.2867 55.699 91.6067 55.0856 91.82C54.4723 92.02 53.8323 92.12 53.1656 92.12ZM49.9656 85.88H56.0656C56.0523 85.28 55.919 84.7533 55.6656 84.3C55.4123 83.8467 55.0656 83.4933 54.6256 83.24C54.199 82.9867 53.6856 82.86 53.0856 82.86C52.4323 82.86 51.879 83 51.4256 83.28C50.9856 83.56 50.6456 83.9267 50.4056 84.38C50.1656 84.8333 50.019 85.3333 49.9656 85.88ZM64.0305 92.12C62.9238 92.12 62.1438 91.82 61.6905 91.22C61.2505 90.62 61.0305 89.7667 61.0305 88.66V82.96H59.3105V81.46H61.0305V78.3H62.7305V81.46H65.9705V82.96H62.7305V88.44C62.7305 88.84 62.7638 89.2067 62.8305 89.54C62.8971 89.86 63.0371 90.12 63.2505 90.32C63.4638 90.5067 63.7838 90.6067 64.2105 90.62C64.5171 90.62 64.7838 90.5667 65.0105 90.46C65.2505 90.3533 65.4505 90.2267 65.6105 90.08L66.3505 91.32C66.1238 91.5067 65.8838 91.66 65.6305 91.78C65.3905 91.9 65.1371 91.9867 64.8705 92.04C64.6171 92.0933 64.3371 92.12 64.0305 92.12ZM72.5602 92.12C71.4402 92.12 70.5135 91.8933 69.7802 91.44C69.0468 90.9733 68.5002 90.3333 68.1402 89.52C67.7802 88.7067 67.6002 87.78 67.6002 86.74C67.6002 85.6867 67.7868 84.76 68.1602 83.96C68.5468 83.1467 69.1068 82.5067 69.8402 82.04C70.5735 81.5733 71.4735 81.34 72.5402 81.34C73.3668 81.34 74.0735 81.5 74.6602 81.82C75.2602 82.1267 75.7535 82.54 76.1402 83.06C76.5268 83.58 76.8068 84.1533 76.9802 84.78C77.1535 85.3933 77.2268 86.0133 77.2002 86.64C77.1868 86.76 77.1735 86.88 77.1602 87C77.1602 87.12 77.1535 87.24 77.1402 87.36H69.3202C69.3735 87.9733 69.5268 88.5267 69.7802 89.02C70.0335 89.5133 70.3935 89.9067 70.8602 90.2C71.3268 90.48 71.9068 90.62 72.6002 90.62C72.9468 90.62 73.2935 90.58 73.6402 90.5C74.0002 90.4067 74.3202 90.2533 74.6002 90.04C74.8935 89.8267 75.1002 89.54 75.2202 89.18H76.9602C76.8002 89.86 76.5002 90.42 76.0602 90.86C75.6202 91.2867 75.0935 91.6067 74.4802 91.82C73.8668 92.02 73.2268 92.12 72.5602 92.12ZM69.3602 85.88H75.4602C75.4468 85.28 75.3135 84.7533 75.0602 84.3C74.8068 83.8467 74.4602 83.4933 74.0202 83.24C73.5935 82.9867 73.0802 82.86 72.4802 82.86C71.8268 82.86 71.2735 83 70.8202 83.28C70.3802 83.56 70.0402 83.9267 69.8002 84.38C69.5602 84.8333 69.4135 85.3333 69.3602 85.88ZM79.465 92V81.46H81.105L81.185 83.06C81.425 82.6733 81.7317 82.3533 82.105 82.1C82.4783 81.8467 82.885 81.66 83.325 81.54C83.7783 81.4067 84.2183 81.34 84.645 81.34C85.6717 81.34 86.4717 81.5533 87.045 81.98C87.6317 82.4067 88.045 82.9867 88.285 83.72C88.5383 84.44 88.665 85.26 88.665 86.18V92H86.965V86.64C86.965 86.1467 86.9317 85.6733 86.865 85.22C86.8117 84.7667 86.6917 84.36 86.505 84C86.3317 83.64 86.0783 83.36 85.745 83.16C85.4117 82.9467 84.965 82.84 84.405 82.84C83.7117 82.84 83.1183 83.0333 82.625 83.42C82.145 83.8067 81.7783 84.3267 81.525 84.98C81.285 85.6333 81.165 86.3667 81.165 87.18V92H79.465ZM95.5614 92C94.7614 92 94.1147 91.88 93.6214 91.64C93.1414 91.4 92.7881 91.0267 92.5614 90.52C92.3481 90.0133 92.2414 89.3733 92.2414 88.6V82.96H90.5214V81.46H92.2414V78.32H93.9414V81.46H96.7614V82.96H93.9414V88.42C93.9414 89.14 94.0681 89.6733 94.3214 90.02C94.5881 90.3533 95.1214 90.52 95.9214 90.52H96.7014V92H95.5614ZM98.6838 92V81.46H100.384V92H98.6838ZM99.5238 79.9C99.1771 79.9 98.8971 79.7933 98.6838 79.58C98.4838 79.3667 98.3838 79.0933 98.3838 78.76C98.3838 78.4267 98.4904 78.16 98.7038 77.96C98.9171 77.7467 99.1904 77.64 99.5238 77.64C99.8304 77.64 100.097 77.7467 100.324 77.96C100.564 78.1733 100.684 78.44 100.684 78.76C100.684 79.0933 100.57 79.3667 100.344 79.58C100.117 79.7933 99.8438 79.9 99.5238 79.9ZM107.659 92.12C106.552 92.12 105.625 91.8933 104.879 91.44C104.132 90.9733 103.572 90.3333 103.199 89.52C102.839 88.7067 102.659 87.78 102.659 86.74C102.659 85.6867 102.845 84.76 103.219 83.96C103.592 83.1467 104.152 82.5067 104.899 82.04C105.645 81.5733 106.579 81.34 107.699 81.34C108.805 81.34 109.725 81.5733 110.459 82.04C111.205 82.5067 111.759 83.1467 112.119 83.96C112.492 84.76 112.679 85.6867 112.679 86.74C112.679 87.78 112.492 88.7067 112.119 89.52C111.745 90.3333 111.185 90.9733 110.439 91.44C109.705 91.8933 108.779 92.12 107.659 92.12ZM107.659 90.62C108.432 90.62 109.059 90.4467 109.539 90.1C110.032 89.7533 110.392 89.2867 110.619 88.7C110.859 88.1133 110.979 87.46 110.979 86.74C110.979 86.02 110.859 85.3667 110.619 84.78C110.392 84.1933 110.032 83.7267 109.539 83.38C109.059 83.0333 108.432 82.86 107.659 82.86C106.899 82.86 106.272 83.0333 105.779 83.38C105.299 83.7267 104.939 84.1933 104.699 84.78C104.472 85.3667 104.359 86.02 104.359 86.74C104.359 87.46 104.472 88.1133 104.699 88.7C104.939 89.2867 105.299 89.7533 105.779 90.1C106.272 90.4467 106.899 90.62 107.659 90.62ZM114.953 92V81.46H116.593L116.673 83.06C116.913 82.6733 117.22 82.3533 117.593 82.1C117.967 81.8467 118.373 81.66 118.813 81.54C119.267 81.4067 119.707 81.34 120.133 81.34C121.16 81.34 121.96 81.5533 122.533 81.98C123.12 82.4067 123.533 82.9867 123.773 83.72C124.027 84.44 124.153 85.26 124.153 86.18V92H122.453V86.64C122.453 86.1467 122.42 85.6733 122.353 85.22C122.3 84.7667 122.18 84.36 121.993 84C121.82 83.64 121.567 83.36 121.233 83.16C120.9 82.9467 120.453 82.84 119.893 82.84C119.2 82.84 118.607 83.0333 118.113 83.42C117.633 83.8067 117.267 84.3267 117.013 84.98C116.773 85.6333 116.653 86.3667 116.653 87.18V92H114.953Z" fill="#CFCED7"/>
<defs>
<linearGradient id="paint0_linear_32_2043" x1="125" y1="33.5" x2="245" y2="246" gradientUnits="userSpaceOnUse">
<stop offset="0.0197596" stop-color="#09051A"/>
<stop offset="1" stop-color="#7647C5"/>
</linearGradient>
</defs>
</svg>
