<svg width="36" height="25" viewBox="0 0 36 25" fill="none" xmlns="http://www.w3.org/2000/svg">
<path d="M15.7652 16.9022C15.88 21.3763 12.2662 25.0473 7.81126 24.9995C3.41364 24.9613 -0.0566594 21.2711 0.000700921 16.8735C0.153662 3.17394 13.8628 0 13.8628 0L14.4651 1.94069C14.4651 1.94069 8.62387 4.06302 6.35814 9.37841C6.92218 9.26369 7.5149 9.21589 8.11719 9.23501C12.2758 9.35929 15.6601 12.7435 15.7652 16.9022Z" fill="#5B8DF9"/>
<path d="M35.2486 16.9022C35.3633 21.3763 31.7496 25.0473 27.2946 24.9995C22.897 24.9613 19.4267 21.2711 19.484 16.8735C19.637 3.17394 33.3461 0 33.3461 0L33.9484 1.94069C33.9484 1.94069 28.1072 4.06302 25.8415 9.37841C26.4055 9.26369 26.9982 9.21589 27.6005 9.23501C31.7591 9.35929 35.1434 12.7435 35.2486 16.9022Z" fill="#5B8DF9"/>
</svg>
