<svg width="320" height="200" viewBox="0 0 320 200" fill="none" xmlns="http://www.w3.org/2000/svg">
<rect width="320" height="200" rx="11" fill="#F1F5FF"/>
<path fill-rule="evenodd" clip-rule="evenodd" d="M160 26.6484C233.574 26.6487 293.218 86.2929 293.218 159.867C293.218 164.305 289.62 167.903 285.182 167.903C280.744 167.903 277.146 164.305 277.146 159.867C277.146 95.1693 224.698 42.7209 160 42.7207C95.3022 42.7207 42.8538 95.1692 42.8538 159.867C42.8535 164.305 39.2557 167.903 34.8176 167.903C30.3796 167.903 26.7817 164.305 26.7815 159.867C26.7815 86.2928 86.4258 26.6485 160 26.6484ZM280.202 160.626C280.215 160.709 280.23 160.791 280.246 160.873C280.214 160.712 280.189 160.548 280.172 160.382L280.202 160.626ZM42.6038 134.19C42.3919 135.164 42.1913 136.141 42.0032 137.123L42.2952 135.653C42.3952 135.165 42.4978 134.677 42.6038 134.19ZM84.0061 66.8047C83.4905 67.2264 82.9775 67.6511 82.469 68.0811L83.5764 67.1562C83.7191 67.0385 83.8628 66.9218 84.0061 66.8047ZM108.155 51.4521C107.197 51.911 106.246 52.382 105.303 52.8652C105.735 52.6439 106.168 52.4251 106.603 52.209C107.118 51.953 107.635 51.7009 108.155 51.4521ZM111.89 49.7402C111.832 49.7656 111.774 49.7919 111.716 49.8174C112.22 49.5958 112.726 49.3769 113.234 49.1621L111.89 49.7402ZM140.177 41.3486C138.952 41.5521 137.733 41.7735 136.521 42.0137L137.625 41.8008C137.994 41.7314 138.363 41.6637 138.733 41.5977C139.213 41.5118 139.695 41.4287 140.177 41.3486Z" fill="#D5DFF8"/>
<path d="M160 29.6484C219.192 29.6484 269.147 69.1378 284.983 123.198C285.764 125.867 284.234 128.665 281.565 129.447C278.896 130.228 276.099 128.699 275.317 126.031C260.704 76.1454 214.599 39.7206 160 39.7206C93.645 39.7206 39.8537 93.5118 39.8537 159.867C39.8537 162.648 37.599 164.903 34.8176 164.903C32.0363 164.903 29.7816 162.648 29.7816 159.867C29.7816 87.9492 88.0823 29.6484 160 29.6484Z" fill="url(#paint0_linear_32_2281)"/>
<path d="M160 26.6484C220.56 26.6486 271.662 67.0512 287.862 122.354C289.109 126.614 286.668 131.078 282.408 132.325C278.284 133.533 273.965 131.283 272.564 127.269L272.438 126.874C258.19 78.2327 213.232 42.7209 160 42.7207C95.3022 42.7207 42.8538 95.1691 42.8538 159.867C42.8535 164.305 39.2557 167.903 34.8176 167.903C30.3796 167.903 26.7817 164.305 26.7815 159.867C26.7815 86.2928 86.4258 26.6485 160 26.6484ZM42.6038 134.19C42.3919 135.164 42.1913 136.141 42.0032 137.123L42.2952 135.653C42.3952 135.165 42.4978 134.677 42.6038 134.19ZM45.7786 122.499C45.7357 122.63 45.6931 122.761 45.6506 122.893C45.6931 122.761 45.7357 122.63 45.7786 122.499ZM46.2004 121.231C46.1692 121.323 46.1387 121.416 46.1077 121.508C46.1387 121.416 46.1692 121.323 46.2004 121.231ZM50.3879 110.6C50.238 110.932 50.0896 111.266 49.9426 111.601C50.0895 111.266 50.2381 110.932 50.3879 110.6ZM51.0764 109.097C50.8863 109.504 50.6987 109.913 50.5129 110.322C50.6986 109.913 50.8863 109.504 51.0764 109.097ZM58.0071 96.333H58.0081H58.0071ZM67.2893 83.4424V83.4434V83.4424ZM83.9836 66.8232C83.4756 67.2389 82.9701 67.6574 82.469 68.0811L83.5764 67.1562C83.7117 67.0446 83.8479 66.9343 83.9836 66.8232ZM85.0198 65.9844C84.8464 66.1231 84.6729 66.2617 84.5002 66.4014C84.6729 66.2617 84.8464 66.1231 85.0198 65.9844ZM85.9475 65.248C85.8113 65.3548 85.676 65.4629 85.5403 65.5703C85.676 65.4629 85.8113 65.3549 85.9475 65.248ZM108.155 51.4521C107.197 51.911 106.246 52.382 105.303 52.8652C105.735 52.6439 106.168 52.4251 106.603 52.209C107.118 51.953 107.635 51.7009 108.155 51.4521ZM109.644 50.752C109.245 50.9364 108.847 51.1228 108.45 51.3115C108.847 51.1228 109.245 50.9364 109.644 50.752ZM111.192 50.0498C110.845 50.2039 110.5 50.3593 110.156 50.5166C110.5 50.3593 110.845 50.2039 111.192 50.0498ZM111.89 49.7402C111.832 49.7656 111.774 49.7919 111.716 49.8174C112.22 49.5958 112.726 49.3769 113.234 49.1621L111.89 49.7402ZM124.07 45.1865C123.74 45.2898 123.411 45.394 123.082 45.5C123.411 45.394 123.74 45.2897 124.07 45.1865ZM125.687 44.6914C125.253 44.8205 124.82 44.953 124.388 45.0869C124.82 44.953 125.253 44.8205 125.687 44.6914ZM140.177 41.3486C138.952 41.5521 137.733 41.7735 136.521 42.0137L137.625 41.8008C137.994 41.7314 138.363 41.6637 138.733 41.5977C139.213 41.5118 139.695 41.4287 140.177 41.3486ZM141.58 41.124C141.142 41.1915 140.704 41.2617 140.267 41.334C140.704 41.2618 141.142 41.1915 141.58 41.124ZM144.521 40.709C143.61 40.8262 142.703 40.9534 141.799 41.0908C142.703 40.9534 143.61 40.8262 144.521 40.709ZM145.663 40.5674C145.482 40.589 145.301 40.6114 145.119 40.6338C145.301 40.6114 145.482 40.589 145.663 40.5674ZM146.835 40.4336C146.583 40.4611 146.332 40.4895 146.08 40.5186C146.332 40.4896 146.583 40.461 146.835 40.4336ZM147.897 40.3223C147.693 40.3426 147.49 40.3643 147.286 40.3857C147.49 40.3644 147.693 40.3426 147.897 40.3223ZM149.083 40.21C148.871 40.2291 148.659 40.2493 148.448 40.2695C148.659 40.2493 148.871 40.2291 149.083 40.21ZM150.502 40.0908C150.146 40.1187 149.79 40.1477 149.434 40.1787C149.79 40.1477 150.146 40.1188 150.502 40.0908ZM152.283 39.9639C151.827 39.9928 151.371 40.0245 150.915 40.0586C151.371 40.0245 151.827 39.9928 152.283 39.9639ZM166.066 39.8711C165.526 39.8442 164.985 39.8214 164.443 39.8018C164.985 39.8214 165.526 39.8442 166.066 39.8711ZM164.13 39.791C163.671 39.7756 163.212 39.7632 162.752 39.7529C163.212 39.7633 163.671 39.7755 164.13 39.791Z" fill="url(#paint1_linear_32_2281)"/>
<path d="M267 164.648C267 104.449 219.318 55.6484 160.5 55.6484C101.682 55.6484 54 104.449 54 164.648" stroke="#9DB3EB" stroke-width="2" stroke-linecap="round" stroke-dasharray="2 12"/>
<circle cx="160.56" cy="156.742" r="11.7576" fill="#D5DFF8"/>
<path d="M260.83 135.921L260.83 135.922C262.044 135.69 263.217 136.485 263.45 137.7C263.683 138.914 262.887 140.088 261.672 140.321C261.666 140.323 261.658 140.322 261.652 140.323L162.44 163.907L162.435 163.884C162.256 163.932 162.075 163.978 161.89 164.013C157.942 164.77 154.128 162.183 153.371 158.236C152.614 154.288 155.201 150.473 159.148 149.716C159.333 149.68 159.519 149.654 159.703 149.633L159.699 149.61L260.83 135.921Z" fill="#060315"/>
<circle cx="161.12" cy="156.989" r="4.31663" fill="white"/>
<defs>
<linearGradient id="paint0_linear_32_2281" x1="41.8642" y1="96.8347" x2="279.815" y2="127.068" gradientUnits="userSpaceOnUse">
<stop stop-color="#B348FB"/>
<stop offset="0.307692" stop-color="#5A4FF8"/>
<stop offset="0.663462" stop-color="#5A9AFB"/>
<stop offset="1" stop-color="#92D0FF"/>
</linearGradient>
<linearGradient id="paint1_linear_32_2281" x1="41.8642" y1="96.8347" x2="279.815" y2="127.068" gradientUnits="userSpaceOnUse">
<stop stop-color="#B348FB"/>
<stop offset="0.307692" stop-color="#5A4FF8"/>
<stop offset="0.663462" stop-color="#5A9AFB"/>
<stop offset="1" stop-color="#92D0FF"/>
</linearGradient>
</defs>
</svg>
